<?xml version="1.0" encoding="UTF-8" standalone="no"?>
<!DOCTYPE svg PUBLIC "-//W3C//DTD SVG 1.1//EN" "http://www.w3.org/Graphics/SVG/1.1/DTD/svg11.dtd">
<svg width="100%" height="100%" viewBox="0 0 701 141" version="1.1" xmlns="http://www.w3.org/2000/svg" xmlns:xlink="http://www.w3.org/1999/xlink" xml:space="preserve" xmlns:serif="http://www.serif.com/" style="fill-rule:evenodd;clip-rule:evenodd;stroke-linejoin:round;stroke-miterlimit:2;">
    <g transform="matrix(1,0,0,1,-888.851289,-485.810129)">
        <g id="table" transform="matrix(1.074897,0,0,1.002831,-92.804913,-0.062744)">
            <rect x="913.256" y="484.501" width="651.692" height="139.855" style="fill:none;"/>
            <clipPath id="_clip1">
                <rect x="913.256" y="484.501" width="651.692" height="139.855"/>
            </clipPath>
            <g clip-path="url(#_clip1)">
                <g id="trans-origin-position" transform="matrix(1.303046,0,0,1.396687,-375.748184,15.756049)">
                    <rect x="989.224" y="335.745" width="500.13" height="500.13" style="fill:none;"/>
                    <clipPath id="_clip2">
                        <rect x="989.224" y="335.745" width="500.13" height="500.13"/>
                    </clipPath>
                    <g clip-path="url(#_clip2)">
                        <g id="trans-origin-wheel" transform="matrix(0.175238,0,0,0.175238,1021.964394,278.453505)">
                            <circle cx="1239.102" cy="1753.937" r="1428.063" style="fill:none;"/>
                            <clipPath id="_clip3">
                                <circle cx="1239.102" cy="1753.937" r="1428.063"/>
                            </clipPath>
                            <g clip-path="url(#_clip3)">
                                <g id="body" transform="matrix(1.006828,0,0,1.006828,-8.460901,-11.976321)">
                                    <path d="M1234.102,2994.079C552.421,2990.814 -0,2436.379 0,1753.937C0,1071.495 552.421,517.06 1234.102,513.795L1234.102,2994.079ZM1244.102,513.786C1926.752,515.916 2480.314,1070.791 2480.314,1753.937C2480.314,2437.083 1926.752,2991.958 1244.102,2994.088L1244.102,513.786Z"/>
                                </g>
                                <g id="playerSlot3" transform="matrix(1.000868,0,0,1.000868,455.302003,77.2495)">
                                    <circle cx="1240.157" cy="513.78" r="178.22"/>
                                    <clipPath id="_clip4">
                                        <circle cx="1240.157" cy="513.78" r="178.22"/>
                                    </clipPath>
                                    <g clip-path="url(#_clip4)">
                                        <g id="player-slot-3-image" transform="matrix(1.089263,0,0,1.089263,-10096.218905,-10818.491822)">
                                            <image id="playerSlot3Image" x="10239" y="10239" width="333px" height="330px"/>
                                        </g>
                                    </g>
                                </g>
                                <g id="playerSlot2" transform="matrix(1.000868,0,0,1.000868,-2.130989,-9.976146)">
                                    <circle cx="1240.157" cy="513.78" r="178.22"/>
                                    <clipPath id="_clip6">
                                        <circle cx="1240.157" cy="513.78" r="178.22"/>
                                    </clipPath>
                                    <g clip-path="url(#_clip6)">
                                        <g id="player-slot-2-image" transform="matrix(0.297034,0,0,0.297034,-14526.413648,-15252.791601)">
                                            <image id="playerSlot2Image" x="52479" y="52479" width="1202px" height="1202px"/>
                                        </g>
                                    </g>
                                </g>
                                <g id="playerSlot1" transform="matrix(1.000868,0,0,1.000868,-459.563982,78.087474)">
                                    <circle cx="1240.157" cy="513.78" r="178.22"/>
                                    <clipPath id="_clip8">
                                        <circle cx="1240.157" cy="513.78" r="178.22"/>
                                    </clipPath>
                                    <g clip-path="url(#_clip8)">
                                        <g id="player-slot-1-image" transform="matrix(0.363715,0,0,0.363715,-5642.062478,-6369.277678)">
                                            <image id="playerSlot1Image" x="18431" y="18431" width="982px" height="982px"/>
                                        </g>
                                    </g>
                                </g>
                            </g>
                        </g>
                    </g>
                </g>
            </g>
        </g>
    </g>
</svg>
